<svg width="370" height="140" viewBox="0 0 370 140" fill="none" xmlns="http://www.w3.org/2000/svg">
<mask id="path-1-outside-1_80_2" maskUnits="userSpaceOnUse" x="175" y="29" width="189" height="88" fill="#000000">
<rect fill="#000000" x="175" y="29" width="189" height="88"/>
<path d="M199.48 31C211.56 31 220.8 33.2 227.2 37.6C233.68 42 236.92 48.88 236.92 58.24C236.92 63.12 236.04 67.32 234.28 70.84C232.6 74.28 230.12 77.12 226.84 79.36C223.56 81.52 219.56 83.12 214.84 84.16C210.12 85.2 204.72 85.72 198.64 85.72H191.08V115H175.96V33.04C179.48 32.24 183.36 31.72 187.6 31.48C191.92 31.16 195.88 31 199.48 31ZM200.56 44.08C196.72 44.08 193.56 44.2 191.08 44.44V72.76H198.4C205.68 72.76 211.28 71.76 215.2 69.76C219.12 67.68 221.08 63.8 221.08 58.12C221.08 55.4 220.56 53.12 219.52 51.28C218.48 49.44 217.04 48 215.2 46.96C213.36 45.92 211.16 45.2 208.6 44.8C206.12 44.32 203.44 44.08 200.56 44.08ZM250.726 31.84H265.846V115H250.726V31.84ZM298.125 73.36C298.125 77.92 298.685 82.08 299.805 85.84C300.925 89.52 302.525 92.68 304.605 95.32C306.765 97.88 309.365 99.88 312.405 101.32C315.445 102.76 318.885 103.48 322.725 103.48C326.485 103.48 329.885 102.76 332.925 101.32C335.965 99.88 338.525 97.88 340.605 95.32C342.765 92.68 344.405 89.52 345.525 85.84C346.645 82.08 347.205 77.92 347.205 73.36C347.205 68.8 346.645 64.68 345.525 61C344.405 57.24 342.765 54.08 340.605 51.52C338.525 48.88 335.965 46.84 332.925 45.4C329.885 43.96 326.485 43.24 322.725 43.24C318.885 43.24 315.445 43.96 312.405 45.4C309.365 46.84 306.765 48.88 304.605 51.52C302.525 54.16 300.925 57.32 299.805 61C298.685 64.68 298.125 68.8 298.125 73.36ZM363.045 73.36C363.045 80.48 361.965 86.76 359.805 92.2C357.725 97.64 354.845 102.2 351.165 105.88C347.565 109.48 343.325 112.2 338.445 114.04C333.565 115.88 328.365 116.8 322.845 116.8C317.325 116.8 312.085 115.88 307.125 114.04C302.245 112.2 297.965 109.48 294.285 105.88C290.685 102.2 287.805 97.64 285.645 92.2C283.485 86.76 282.405 80.48 282.405 73.36C282.405 66.24 283.485 60 285.645 54.64C287.805 49.2 290.725 44.64 294.405 40.96C298.165 37.28 302.485 34.52 307.365 32.68C312.245 30.84 317.405 29.92 322.845 29.92C328.285 29.92 333.445 30.84 338.325 32.68C343.205 34.52 347.445 37.28 351.045 40.96C354.725 44.64 357.645 49.2 359.805 54.64C361.965 60 363.045 66.24 363.045 73.36Z"/>
</mask>
<path d="M199.48 31C211.56 31 220.8 33.2 227.2 37.6C233.68 42 236.92 48.88 236.92 58.24C236.92 63.12 236.04 67.32 234.28 70.84C232.6 74.28 230.12 77.12 226.84 79.36C223.56 81.52 219.56 83.12 214.84 84.16C210.12 85.2 204.72 85.72 198.64 85.72H191.08V115H175.96V33.04C179.48 32.24 183.36 31.72 187.6 31.48C191.92 31.16 195.88 31 199.48 31ZM200.56 44.08C196.72 44.08 193.56 44.2 191.08 44.44V72.76H198.4C205.68 72.76 211.28 71.76 215.2 69.76C219.12 67.68 221.08 63.8 221.08 58.12C221.08 55.4 220.56 53.12 219.52 51.28C218.48 49.44 217.04 48 215.2 46.96C213.36 45.92 211.16 45.2 208.6 44.8C206.12 44.32 203.44 44.08 200.56 44.08ZM250.726 31.84H265.846V115H250.726V31.84ZM298.125 73.36C298.125 77.92 298.685 82.08 299.805 85.84C300.925 89.52 302.525 92.68 304.605 95.32C306.765 97.88 309.365 99.88 312.405 101.32C315.445 102.76 318.885 103.48 322.725 103.48C326.485 103.48 329.885 102.76 332.925 101.32C335.965 99.88 338.525 97.88 340.605 95.32C342.765 92.68 344.405 89.52 345.525 85.84C346.645 82.08 347.205 77.92 347.205 73.36C347.205 68.8 346.645 64.68 345.525 61C344.405 57.24 342.765 54.08 340.605 51.52C338.525 48.88 335.965 46.84 332.925 45.4C329.885 43.96 326.485 43.24 322.725 43.24C318.885 43.24 315.445 43.96 312.405 45.4C309.365 46.84 306.765 48.88 304.605 51.52C302.525 54.16 300.925 57.32 299.805 61C298.685 64.68 298.125 68.8 298.125 73.36ZM363.045 73.36C363.045 80.48 361.965 86.76 359.805 92.2C357.725 97.64 354.845 102.2 351.165 105.88C347.565 109.48 343.325 112.2 338.445 114.04C333.565 115.88 328.365 116.8 322.845 116.8C317.325 116.8 312.085 115.88 307.125 114.04C302.245 112.2 297.965 109.48 294.285 105.88C290.685 102.2 287.805 97.64 285.645 92.2C283.485 86.76 282.405 80.48 282.405 73.36C282.405 66.24 283.485 60 285.645 54.64C287.805 49.2 290.725 44.64 294.405 40.96C298.165 37.28 302.485 34.52 307.365 32.68C312.245 30.84 317.405 29.92 322.845 29.92C328.285 29.92 333.445 30.84 338.325 32.68C343.205 34.52 347.445 37.28 351.045 40.96C354.725 44.64 357.645 49.2 359.805 54.64C361.965 60 363.045 66.24 363.045 73.36Z" fill="#000000"/>
<path d="M227.2 37.6L227.143 37.6824L227.144 37.6827L227.2 37.6ZM234.28 70.84L234.191 70.7953L234.19 70.7961L234.28 70.84ZM226.84 79.36L226.895 79.4435L226.896 79.4426L226.84 79.36ZM214.84 84.16L214.862 84.2577L214.862 84.2577L214.84 84.16ZM191.08 85.72V85.62H190.98V85.72H191.08ZM191.08 115V115.1H191.18V115H191.08ZM175.96 115H175.86V115.1H175.96V115ZM175.96 33.04L175.938 32.9425L175.86 32.9602V33.04H175.96ZM187.6 31.48L187.606 31.5799L187.607 31.5797L187.6 31.48ZM191.08 44.44L191.07 44.3405L190.98 44.3492V44.44H191.08ZM191.08 72.76H190.98V72.86H191.08V72.76ZM215.2 69.76L215.245 69.8491L215.247 69.8483L215.2 69.76ZM219.52 51.28L219.433 51.3292L219.433 51.3292L219.52 51.28ZM208.6 44.8L208.581 44.8982L208.585 44.8988L208.6 44.8ZM199.48 31.1C211.55 31.1 220.767 33.2986 227.143 37.6824L227.257 37.5176C220.833 33.1014 211.57 30.9 199.48 30.9V31.1ZM227.144 37.6827C233.591 42.0603 236.82 48.9057 236.82 58.24H237.02C237.02 48.8543 233.769 41.9397 227.256 37.5173L227.144 37.6827ZM236.82 58.24C236.82 63.1081 235.942 67.2921 234.191 70.7953L234.369 70.8847C236.138 67.3479 237.02 63.1319 237.02 58.24H236.82ZM234.19 70.7961C232.518 74.2199 230.05 77.0468 226.784 79.2774L226.896 79.4426C230.19 77.1932 232.682 74.3401 234.37 70.8839L234.19 70.7961ZM226.785 79.2765C223.517 81.4284 219.529 83.0244 214.818 84.0623L214.862 84.2577C219.591 83.2156 223.603 81.6116 226.895 79.4435L226.785 79.2765ZM214.818 84.0623C210.107 85.1004 204.715 85.62 198.64 85.62V85.82C204.725 85.82 210.133 85.2996 214.862 84.2577L214.818 84.0623ZM198.64 85.62H191.08V85.82H198.64V85.62ZM190.98 85.72V115H191.18V85.72H190.98ZM191.08 114.9H175.96V115.1H191.08V114.9ZM176.06 115V33.04H175.86V115H176.06ZM175.982 33.1375C179.496 32.3389 183.37 31.8196 187.606 31.5798L187.594 31.3802C183.35 31.6204 179.464 32.1411 175.938 32.9425L175.982 33.1375ZM187.607 31.5797C191.925 31.2599 195.883 31.1 199.48 31.1V30.9C195.877 30.9 191.915 31.0601 187.593 31.3803L187.607 31.5797ZM200.56 43.98C196.718 43.98 193.555 44.1 191.07 44.3405L191.09 44.5395C193.565 44.3 196.722 44.18 200.56 44.18V43.98ZM190.98 44.44V72.76H191.18V44.44H190.98ZM191.08 72.86H198.4V72.66H191.08V72.86ZM198.4 72.86C205.687 72.86 211.305 71.8595 215.245 69.8491L215.155 69.6709C211.255 71.6605 205.673 72.66 198.4 72.66V72.86ZM215.247 69.8483C219.209 67.7459 221.18 63.8248 221.18 58.12H220.98C220.98 63.7752 219.031 67.6141 215.153 69.6717L215.247 69.8483ZM221.18 58.12C221.18 55.3876 220.658 53.0895 219.607 51.2308L219.433 51.3292C220.462 53.1505 220.98 55.4124 220.98 58.12H221.18ZM219.607 51.2308C218.558 49.375 217.105 47.9219 215.249 46.8729L215.151 47.0471C216.975 48.0781 218.402 49.505 219.433 51.3292L219.607 51.2308ZM215.249 46.8729C213.397 45.8259 211.185 45.1026 208.615 44.7012L208.585 44.8988C211.135 45.2973 213.323 46.0141 215.151 47.0471L215.249 46.8729ZM208.619 44.7018C206.132 44.2205 203.446 43.98 200.56 43.98V44.18C203.434 44.18 206.108 44.4195 208.581 44.8982L208.619 44.7018ZM250.726 31.84V31.74H250.626V31.84H250.726ZM265.846 31.84H265.946V31.74H265.846V31.84ZM265.846 115V115.1H265.946V115H265.846ZM250.726 115H250.626V115.1H250.726V115ZM250.726 31.94H265.846V31.74H250.726V31.94ZM265.746 31.84V115H265.946V31.84H265.746ZM265.846 114.9H250.726V115.1H265.846V114.9ZM250.826 115V31.84H250.626V115H250.826ZM299.805 85.84L299.709 85.8685L299.709 85.8691L299.805 85.84ZM304.605 95.32L304.526 95.3819L304.528 95.3845L304.605 95.32ZM312.405 101.32L312.447 101.23L312.405 101.32ZM332.925 101.32L332.882 101.23L332.882 101.23L332.925 101.32ZM340.605 95.32L340.527 95.2567L340.527 95.2569L340.605 95.32ZM345.525 85.84L345.62 85.8691L345.621 85.8685L345.525 85.84ZM345.525 61L345.429 61.0285L345.429 61.0291L345.525 61ZM340.605 51.52L340.526 51.5819L340.528 51.5845L340.605 51.52ZM332.925 45.4L332.967 45.3096L332.925 45.4ZM312.405 45.4L312.362 45.3096L312.362 45.3096L312.405 45.4ZM304.605 51.52L304.527 51.4567L304.526 51.4581L304.605 51.52ZM299.805 61L299.709 60.9709L299.709 60.9709L299.805 61ZM359.805 92.2L359.712 92.1631L359.711 92.1643L359.805 92.2ZM351.165 105.88L351.235 105.951L351.235 105.951L351.165 105.88ZM307.125 114.04L307.089 114.134L307.09 114.134L307.125 114.04ZM294.285 105.88L294.213 105.95L294.215 105.951L294.285 105.88ZM285.645 92.2L285.552 92.2369L285.552 92.2369L285.645 92.2ZM285.645 54.64L285.737 54.6774L285.738 54.6769L285.645 54.64ZM294.405 40.96L294.335 40.8885L294.334 40.8893L294.405 40.96ZM307.365 32.68L307.4 32.7736L307.4 32.7736L307.365 32.68ZM338.325 32.68L338.36 32.5864L338.36 32.5864L338.325 32.68ZM351.045 40.96L350.973 41.0299L350.974 41.0307L351.045 40.96ZM359.805 54.64L359.712 54.6769L359.712 54.6774L359.805 54.64ZM298.025 73.36C298.025 77.9281 298.586 82.0979 299.709 85.8685L299.901 85.8115C298.784 82.0621 298.225 77.9119 298.225 73.36H298.025ZM299.709 85.8691C300.832 89.5593 302.437 92.7308 304.526 95.3819L304.683 95.2581C302.612 92.6292 301.017 89.4807 299.9 85.8109L299.709 85.8691ZM304.528 95.3845C306.698 97.9555 309.309 99.9643 312.362 101.41L312.447 101.23C309.42 99.7957 306.832 97.8045 304.681 95.2555L304.528 95.3845ZM312.362 101.41C315.417 102.858 318.872 103.58 322.725 103.58V103.38C318.897 103.38 315.472 102.662 312.447 101.23L312.362 101.41ZM322.725 103.58C326.498 103.58 329.913 102.857 332.967 101.41L332.882 101.23C329.857 102.663 326.472 103.38 322.725 103.38V103.58ZM332.967 101.41C336.021 99.9641 338.593 97.9549 340.682 95.3831L340.527 95.2569C338.457 97.8051 335.909 99.7959 332.882 101.23L332.967 101.41ZM340.682 95.3833C342.851 92.732 344.497 89.56 345.62 85.8691L345.429 85.8109C344.312 89.48 342.678 92.628 340.527 95.2567L340.682 95.3833ZM345.621 85.8685C346.744 82.0979 347.305 77.9281 347.305 73.36H347.105C347.105 77.9119 346.546 82.0621 345.429 85.8115L345.621 85.8685ZM347.305 73.36C347.305 68.7919 346.744 64.6619 345.62 60.9709L345.429 61.0291C346.546 64.6981 347.105 68.8081 347.105 73.36H347.305ZM345.621 60.9715C344.497 57.2005 342.851 54.0277 340.681 51.4555L340.528 51.5845C342.678 54.1323 344.312 57.2795 345.429 61.0285L345.621 60.9715ZM340.683 51.4581C338.594 48.806 336.021 46.7562 332.967 45.3096L332.882 45.4904C335.908 46.9238 338.456 48.954 340.526 51.5819L340.683 51.4581ZM332.967 45.3096C329.913 43.8626 326.498 43.14 322.725 43.14V43.34C326.472 43.34 329.857 44.0574 332.882 45.4904L332.967 45.3096ZM322.725 43.14C318.872 43.14 315.417 43.8624 312.362 45.3096L312.447 45.4904C315.472 44.0575 318.897 43.34 322.725 43.34V43.14ZM312.362 45.3096C309.308 46.7561 306.697 48.8054 304.527 51.4567L304.682 51.5833C306.833 48.9546 309.421 46.9239 312.447 45.4904L312.362 45.3096ZM304.526 51.4581C302.437 54.1092 300.832 57.2807 299.709 60.9709L299.9 61.0291C301.017 57.3593 302.612 54.2108 304.683 51.5819L304.526 51.4581ZM299.709 60.9709C298.586 64.6619 298.025 68.7919 298.025 73.36H298.225C298.225 68.8081 298.784 64.6981 299.9 61.0291L299.709 60.9709ZM362.945 73.36C362.945 80.47 361.866 86.7371 359.712 92.1631L359.898 92.2369C362.063 86.7829 363.145 80.49 363.145 73.36H362.945ZM359.711 92.1643C357.636 97.5927 354.763 102.14 351.094 105.809L351.235 105.951C354.926 102.26 357.814 97.6873 359.898 92.2357L359.711 92.1643ZM351.094 105.809C347.504 109.399 343.276 112.111 338.409 113.946L338.48 114.134C343.373 112.289 347.625 109.561 351.235 105.951L351.094 105.809ZM338.409 113.946C333.541 115.782 328.353 116.7 322.845 116.7V116.9C328.376 116.9 333.588 115.978 338.48 114.134L338.409 113.946ZM322.845 116.7C317.336 116.7 312.108 115.782 307.159 113.946L307.09 114.134C312.062 115.978 317.313 116.9 322.845 116.9V116.7ZM307.16 113.946C302.293 112.111 298.025 109.399 294.355 105.809L294.215 105.951C297.905 109.561 302.197 112.289 307.089 114.134L307.16 113.946ZM294.356 105.81C290.767 102.141 287.893 97.5925 285.738 92.1631L285.552 92.2369C287.716 97.6875 290.603 102.259 294.213 105.95L294.356 105.81ZM285.738 92.1631C283.583 86.7371 282.505 80.47 282.505 73.36H282.305C282.305 80.49 283.386 86.7829 285.552 92.2369L285.738 92.1631ZM282.505 73.36C282.505 66.2499 283.583 60.0231 285.737 54.6774L285.552 54.6026C283.386 59.9769 282.305 66.2301 282.305 73.36H282.505ZM285.738 54.6769C287.893 49.248 290.806 44.6999 294.475 41.0307L294.334 40.8893C290.643 44.5801 287.716 49.152 285.552 54.6031L285.738 54.6769ZM294.475 41.0315C298.225 37.3611 302.533 34.6086 307.4 32.7736L307.329 32.5864C302.436 34.4314 298.105 37.1989 294.335 40.8885L294.475 41.0315ZM307.4 32.7736C312.268 30.938 317.416 30.02 322.845 30.02V29.82C317.393 29.82 312.221 30.742 307.329 32.5864L307.4 32.7736ZM322.845 30.02C328.273 30.02 333.421 30.938 338.289 32.7736L338.36 32.5864C333.468 30.742 328.296 29.82 322.845 29.82V30.02ZM338.289 32.7736C343.156 34.6085 347.384 37.3605 350.973 41.0299L351.116 40.8901C347.506 37.1995 343.253 34.4315 338.36 32.5864L338.289 32.7736ZM350.974 41.0307C354.643 44.6999 357.556 49.248 359.712 54.6769L359.898 54.6031C357.733 49.152 354.806 44.5801 351.115 40.8893L350.974 41.0307ZM359.712 54.6774C361.866 60.0231 362.945 66.2499 362.945 73.36H363.145C363.145 66.2301 362.063 59.9769 359.897 54.6026L359.712 54.6774Z" fill="#000000" mask="url(#path-1-outside-1_80_2)"/>
<path fill-rule="evenodd" clip-rule="evenodd" d="M139.178 69.6321C139.178 108.106 108.02 139.264 69.6321 139.264C63.6931 139.264 58.0124 138.576 52.5899 137.198C53.0489 137.198 53.508 137.198 53.967 137.198C81.51 137.198 103.803 114.906 103.803 87.3629C103.803 59.8199 81.51 37.5273 53.967 37.5273C26.424 37.5273 4.13145 59.8199 4.13145 87.3629C4.13145 89.8876 4.30359 92.355 4.64788 94.765C1.63536 87.0186 0 78.4975 0 69.6321C0 31.2441 31.158 0 69.6321 0C108.02 0 139.178 31.2441 139.178 69.6321ZM131.862 69.6321C131.862 35.2895 103.975 7.40215 69.6321 7.40215C50.5241 7.40215 33.4819 16.0093 22.0344 29.5226C32.8794 20.3129 46.9091 14.8044 62.2299 14.8044C96.5726 14.8044 124.46 42.6916 124.46 77.0343C124.46 92.355 118.865 106.385 109.742 117.23C123.255 105.782 131.862 88.7401 131.862 69.6321Z" fill="url(#paint0_linear_80_2)"/>
<defs>
<linearGradient id="paint0_linear_80_2" x1="-0.0292671" y1="139.966" x2="-0.0292671" y2="4.95859" gradientUnits="userSpaceOnUse">
<stop offset="0.146" stop-color="#A97100"/>
<stop offset="0.822" stop-color="#EDE46E"/>
<stop offset="1" stop-color="#DEC53F"/>
</linearGradient>
</defs>
</svg>
